<?xml version="1.0" encoding="utf-8"?>
<!-- Generator: Adobe Illustrator 21.1.0, SVG Export Plug-In . SVG Version: 6.00 Build 0)  -->
<svg version="1.1" id="Layer_1" xmlns="http://www.w3.org/2000/svg" xmlns:xlink="http://www.w3.org/1999/xlink" x="0px" y="0px"
	 viewBox="0 0 214 52" style="enable-background:new 0 0 214 52;" xml:space="preserve">
<style type="text/css">
	.st0{fill:#29ABE2;}
	.st1{fill:#FFFFFF;}
</style>
<g>
	<g>
		<g>
			<path class="st0" d="M25.3,20.2c-0.3-1.8-1.5-3-3.1-3c-2,0-3.7,1.6-3.7,3.7c0,0.2,0,0.4,0.1,0.6c-3.2,0.4-5.6,2.3-5.8,4.7
				c0,0.1,0,0.2,0,0.3c-1.2-2.7-2.6-6.2-2.6-8.2c0-5,3.9-9.1,9-9.2c0,0,0,0,0,0c0,0,0,0,0,0c4.5,0.1,8.1,3.3,8.8,7.6c0,0,0,0,0,0
				c0,0.1,0,0.2,0,0.2c0,0,0,0,0,0c0,0,0,0,0,0c0.1,0.3,0.4,0.5,0.7,0.5c0.4,0,0.7-0.3,0.7-0.6c0,0,0-0.1,0-0.1c0,0,0-0.1,0-0.1
				c-0.8-4.9-5-8.6-10.2-8.8c0,0,0,0,0,0c0,0-0.1,0-0.1,0C13.4,7.7,8.8,12.4,8.8,18.2c0,3.8,4.5,12.5,4.6,12.8
				c0.1,0.2,0.4,0.4,0.6,0.4h5.1c0.4,0,0.7-0.3,0.7-0.7c0-0.4-0.3-0.7-0.7-0.7h-4.7c-0.1-0.2-0.3-0.5-0.4-0.9v-2.3l0,0
				c0-0.2,0-0.3,0-0.5c0.1-1.9,2.4-3.4,5.4-3.5c0.2,0,0.4-0.1,0.5-0.3c0.1-0.2,0.1-0.4,0-0.6c-0.1-0.3-0.2-0.6-0.2-0.9
				c0-1.3,1.1-2.4,2.4-2.4c1.4,0,1.8,1.3,1.9,2.4c0,0.2,0.1,0.3,0.2,0.5c0.1,0.1,0.3,0.2,0.5,0.2l0.2,0c0.1,0,0.2,0,0.2,0
				c2.3,0,4,2,4,3.2c0,0.9-1.1,1.4-3.3,1.5c-0.3,0-0.5,0.2-0.6,0.5c-0.1,0.3-0.2,0.7-0.2,1.1c-0.1,0.3-0.2,0.9-0.2,1
				c-0.2,0.3-0.1,0.7,0.2,0.9c0.1,0.1,0.2,0.1,0.4,0.1c0.2,0,0.4-0.1,0.5-0.3c0.2-0.3,0.3-0.7,0.4-1.5l0,0c0-0.2,0.1-0.3,0.1-0.5
				c2.7-0.2,4-1.1,4-2.8C30.5,22.7,28.2,20.2,25.3,20.2z"/>
		</g>
		<g>
			<path class="st1" d="M24.8,33.4H14.3c-0.4,0-0.7,0.3-0.7,0.7c0,0.4,0.3,0.7,0.7,0.7h10.5c0.4,0,0.7-0.3,0.7-0.7
				C25.5,33.7,25.2,33.4,24.8,33.4z"/>
		</g>
		<g>
			<path class="st1" d="M24.8,36.6H14.3c-0.4,0-0.7,0.3-0.7,0.7c0,0.4,0.3,0.7,0.7,0.7h10.5c0.4,0,0.7-0.3,0.7-0.7
				C25.5,37,25.2,36.6,24.8,36.6z"/>
		</g>
		<g>
			<path class="st1" d="M23.2,39.9h-7.3c-0.4,0-0.7,0.3-0.7,0.7c0,0.4,0.3,0.7,0.7,0.7h7.3c0.4,0,0.7-0.3,0.7-0.7
				C23.9,40.2,23.6,39.9,23.2,39.9z"/>
		</g>
		<g>
			<path class="st1" d="M20.9,43.1h-2.7c-0.4,0-0.7,0.3-0.7,0.7c0,0.4,0.3,0.7,0.7,0.7h2.7c0.4,0,0.7-0.3,0.7-0.7
				C21.6,43.4,21.3,43.1,20.9,43.1z"/>
		</g>
		<g>
			<circle class="st1" cx="25.9" cy="23.4" r="0.7"/>
		</g>
	</g>
	<g>
		<g>
			<path class="st1" d="M53.3,9.6v11.8c0,0.3-0.2,0.5-0.5,0.5h-2c-0.3,0-0.5-0.2-0.5-0.5v-7.4L48,19.6c-0.1,0.2-0.3,0.3-0.5,0.3
				h-1.2c-0.3,0-0.4-0.1-0.5-0.3l-2.3-5.5v7.4c0,0.3-0.2,0.5-0.5,0.5h-2c-0.3,0-0.5-0.2-0.5-0.5V9.6c0-0.3,0.2-0.5,0.5-0.5h2h0.4
				c0.3,0,0.4,0.1,0.5,0.3l3,7l3-7c0.1-0.2,0.3-0.3,0.5-0.3h1.5h1C53.1,9.2,53.3,9.3,53.3,9.6z"/>
			<path class="st1" d="M54.9,17.4c0-2.7,2.1-4.8,4.8-4.8c2.7,0,4.8,2.1,4.8,4.8c0,2.7-2.1,4.8-4.8,4.8C57,22.2,54.9,20.1,54.9,17.4
				z M61.8,17.4c0-1.3-0.9-2.1-2.1-2.1c-1.2,0-2.1,0.9-2.1,2.1s0.9,2.1,2.1,2.1C60.9,19.5,61.8,18.7,61.8,17.4z"/>
			<path class="st1" d="M73.9,13.3v8.2c0,0.3-0.2,0.5-0.5,0.5h-1.8c-0.3,0-0.5-0.2-0.5-0.5v-0.4c-0.4,0.6-1.2,1.1-2.4,1.1
				c-1.7,0-2.9-1.3-2.9-3.6v-5.3c0-0.3,0.2-0.5,0.5-0.5h1.8c0.3,0,0.5,0.2,0.5,0.5v5.1c0,0.9,0.5,1.3,1.2,1.3c0.8,0,1.3-0.5,1.3-1.5
				v-4.9c0-0.3,0.2-0.5,0.5-0.5h1.8C73.7,12.8,73.9,13,73.9,13.3z"/>
			<path class="st1" d="M83.1,19.2c0,2.1-1.8,3-3.8,3c-1.9,0-3.5-0.8-3.8-2.8c0-0.3,0.1-0.5,0.4-0.5h1.8c0.3,0,0.4,0.1,0.5,0.4
				c0.1,0.3,0.5,0.5,1,0.5c0.8,0,1.1-0.3,1.1-0.6c0-1.3-4.8-0.1-4.8-3.6c0-2.1,1.8-3,3.7-3c1.7,0,3.4,0.8,3.6,2.8
				c0,0.3-0.1,0.5-0.4,0.5h-1.8c-0.3,0-0.4-0.1-0.5-0.4c-0.1-0.3-0.4-0.5-0.9-0.5c-0.7,0-1,0.3-1,0.6C78.3,16.9,83.1,15.6,83.1,19.2
				z"/>
			<path class="st1" d="M93.6,17.4c0,0.2,0,0.5,0,0.7c0,0.3-0.2,0.4-0.5,0.4h-2.2H87c0.3,1.1,1.2,1.5,2.1,1.5c0.5,0,1-0.2,1.3-0.5
				c0.2-0.1,0.3-0.2,0.6-0.2l1.7,0c0.3,0,0.5,0.2,0.4,0.5c-0.7,1.6-2.2,2.4-4.1,2.4c-3,0-5-2.1-5-4.8c0-2.7,2-4.8,4.9-4.8
				C91.6,12.6,93.6,14.6,93.6,17.4z M90.8,16.4c-0.3-1-1.1-1.4-1.9-1.4c-1,0-1.7,0.5-2,1.4H90.8z"/>
			<path class="st0" d="M102.5,19.6v1.9c0,0.3-0.2,0.5-0.5,0.5h-5.4h-1c-0.3,0-0.5-0.2-0.5-0.5V9.6c0-0.3,0.2-0.5,0.5-0.5h2
				c0.3,0,0.5,0.2,0.5,0.5v9.5h3.9C102.3,19.1,102.5,19.3,102.5,19.6z"/>
			<path class="st0" d="M103.6,11.3V9.6c0-0.3,0.2-0.5,0.5-0.5h1.8c0.3,0,0.5,0.2,0.5,0.5v1.6c0,0.3-0.2,0.5-0.5,0.5h-1.8
				C103.8,11.7,103.6,11.6,103.6,11.3z M103.6,21.5v-8.2c0-0.3,0.2-0.5,0.5-0.5h1.8c0.3,0,0.5,0.2,0.5,0.5v8.2
				c0,0.3-0.2,0.5-0.5,0.5h-1.8C103.8,21.9,103.6,21.8,103.6,21.5z"/>
			<path class="st0" d="M117.3,12.8c0.3,0,0.5,0.2,0.5,0.5v8.2c0,3.1-2.5,4.4-4.7,4.4c-2.2,0-4.3-1.1-4.6-3.2c0-0.3,0.2-0.5,0.5-0.5
				h1.8c0.3,0,0.4,0.1,0.5,0.4c0.2,0.5,0.8,0.9,1.8,0.9c1.2,0,2-0.7,2-1.9v-0.8c-0.6,0.7-1.5,1.2-2.8,1.2c-2.4,0-4.4-2.1-4.4-4.6
				c0-2.5,2-4.6,4.4-4.6c1.3,0,2.2,0.4,2.8,1.2v-0.5c0-0.3,0.2-0.5,0.5-0.5L117.3,12.8L117.3,12.8z M115.1,17.2
				c0-1.3-0.9-2.1-2.2-2.1s-2.2,0.9-2.2,2.1c0,1.3,0.9,2.1,2.2,2.1S115.1,18.4,115.1,17.2z"/>
			<path class="st0" d="M127.7,16.2v5.3c0,0.3-0.2,0.5-0.5,0.5h-1.8c-0.3,0-0.5-0.2-0.5-0.5v-5.1c0-0.9-0.5-1.3-1.2-1.3
				c-0.8,0-1.3,0.5-1.3,1.5v4.9c0,0.3-0.2,0.5-0.5,0.5h-1.8c-0.3,0-0.5-0.2-0.5-0.5V9.6c0-0.3,0.2-0.5,0.5-0.5h1.8
				c0.3,0,0.5,0.2,0.5,0.5v4c0.4-0.6,1.2-1.1,2.4-1.1C126.5,12.6,127.7,13.9,127.7,16.2z"/>
			<path class="st0" d="M134.4,13.3V15c0,0.3-0.2,0.5-0.5,0.5h-1v6c0,0.3-0.2,0.5-0.5,0.5h-1.8c-0.3,0-0.5-0.2-0.5-0.5v-6h-1
				c-0.3,0-0.5-0.2-0.5-0.5v-1.7c0-0.3,0.2-0.5,0.5-0.5h1v-2.5c0-0.3,0.2-0.5,0.5-0.5h1.8c0.3,0,0.5,0.2,0.5,0.5v2.5h1
				C134.3,12.8,134.4,13,134.4,13.3z"/>
		</g>
		<g>
			<path class="st1" d="M40.5,41.9V28.7c0-0.2,0.1-0.4,0.2-0.6c0.2-0.2,0.4-0.2,0.6-0.2h0.2c0.3,0,0.6,0.2,0.8,0.5l8.9,11.3v-11
				c0-0.2,0.1-0.4,0.2-0.6c0.2-0.2,0.4-0.2,0.6-0.2c0.2,0,0.4,0.1,0.6,0.2c0.2,0.2,0.2,0.4,0.2,0.6v13.2c0,0.2-0.1,0.4-0.2,0.6
				c-0.1,0.1-0.3,0.2-0.5,0.2H52c-0.3,0-0.6-0.2-0.9-0.5l-9.1-11.6v11.3c0,0.2-0.1,0.4-0.2,0.6c-0.2,0.2-0.4,0.2-0.6,0.2
				c-0.2,0-0.4-0.1-0.6-0.2C40.6,42.3,40.5,42.1,40.5,41.9z"/>
			<path class="st1" d="M65.5,41.2c-1.1,1.1-2.5,1.6-4.1,1.6c-1.5,0-2.8-0.5-3.8-1.6c-1-1.1-1.6-2.4-1.6-4v0c0-1.6,0.5-2.9,1.5-4
				c1-1.1,2.2-1.6,3.7-1.6c1.5,0,2.7,0.5,3.7,1.6c0.9,1.1,1.4,2.4,1.4,3.9c0,0.2-0.1,0.4-0.2,0.5c-0.1,0.1-0.3,0.2-0.5,0.2h-7.8
				c0.1,1.1,0.5,2,1.2,2.7c0.7,0.6,1.6,1,2.6,1c1.2,0,2.2-0.4,3.1-1.3c0.2-0.1,0.3-0.2,0.5-0.2c0.2,0,0.4,0.1,0.5,0.2
				c0.1,0.1,0.2,0.3,0.2,0.5C65.8,40.9,65.7,41.1,65.5,41.2z M57.7,36.6h7c-0.1-1.1-0.4-1.9-1-2.6c-0.6-0.7-1.4-1-2.4-1
				c-0.9,0-1.7,0.3-2.4,1C58.2,34.7,57.8,35.5,57.7,36.6z"/>
			<path class="st1" d="M78.3,32.5v9.4c0,0.2-0.1,0.4-0.2,0.6c-0.2,0.2-0.3,0.2-0.6,0.2c-0.2,0-0.4-0.1-0.6-0.2
				c-0.2-0.2-0.2-0.4-0.2-0.6v-1.2c-0.9,1.4-2.1,2.1-3.7,2.1c-1.3,0-2.3-0.4-3-1.2c-0.7-0.8-1.1-1.8-1.1-3.1v-6
				c0-0.2,0.1-0.4,0.2-0.6c0.2-0.2,0.3-0.2,0.6-0.2c0.2,0,0.4,0.1,0.6,0.2c0.2,0.2,0.2,0.4,0.2,0.6v5.6c0,1,0.3,1.8,0.8,2.4
				c0.5,0.6,1.3,0.9,2.2,0.9c0.9,0,1.7-0.3,2.3-0.9c0.6-0.6,0.9-1.4,0.9-2.4v-5.5c0-0.2,0.1-0.4,0.2-0.6s0.3-0.2,0.6-0.2
				c0.2,0,0.4,0.1,0.6,0.2C78.2,32.1,78.3,32.3,78.3,32.5z"/>
			<path class="st1" d="M81.9,41.9v-9.4c0-0.2,0.1-0.4,0.2-0.6c0.2-0.2,0.3-0.2,0.6-0.2c0.2,0,0.4,0.1,0.6,0.2s0.2,0.3,0.2,0.6v2
				c0.4-0.9,0.9-1.6,1.6-2.1c0.7-0.5,1.4-0.8,2.1-0.8c0.2,0,0.4,0.1,0.6,0.2c0.1,0.2,0.2,0.3,0.2,0.6c0,0.2-0.1,0.4-0.2,0.6
				c-0.1,0.1-0.3,0.2-0.5,0.3c-1.1,0.1-2,0.6-2.7,1.5c-0.7,0.8-1.1,2-1.1,3.5v3.7c0,0.2-0.1,0.4-0.2,0.6c-0.2,0.2-0.3,0.2-0.6,0.2
				c-0.2,0-0.4-0.1-0.6-0.2C82,42.3,81.9,42.1,81.9,41.9z"/>
			<path class="st1" d="M98.9,41.2c-1.1,1.1-2.4,1.7-4,1.7c-1.6,0-2.9-0.5-4-1.6c-1.1-1.1-1.6-2.4-1.6-4v0c0-1.5,0.5-2.9,1.6-4
				c1.1-1.1,2.4-1.7,4-1.7c1.6,0,2.9,0.5,4,1.6c1.1,1.1,1.6,2.4,1.6,4v0C100.5,38.7,100,40.1,98.9,41.2z M94.9,41.4
				c1.2,0,2.1-0.4,2.8-1.2c0.7-0.8,1.1-1.8,1.1-2.9v0c0-1.2-0.4-2.2-1.2-3C96.9,33.4,96,33,94.9,33c-1.1,0-2.1,0.4-2.8,1.2
				c-0.7,0.8-1.1,1.8-1.1,3v0c0,1.2,0.4,2.2,1.1,3C92.8,41,93.8,41.4,94.9,41.4z"/>
			<path class="st1" d="M103.4,41.9v-9.4c0-0.2,0.1-0.4,0.2-0.6c0.2-0.2,0.3-0.2,0.6-0.2c0.2,0,0.4,0.1,0.6,0.2
				c0.2,0.2,0.2,0.3,0.2,0.6v1.2c0.8-1.4,2.1-2.1,3.7-2.1c1.3,0,2.3,0.4,3,1.2c0.7,0.8,1.1,1.8,1.1,3.1v6c0,0.2-0.1,0.4-0.2,0.6
				c-0.2,0.2-0.3,0.2-0.6,0.2c-0.2,0-0.4-0.1-0.6-0.2c-0.2-0.2-0.2-0.4-0.2-0.6v-5.6c0-1-0.3-1.8-0.8-2.4s-1.3-0.9-2.2-0.9
				c-0.9,0-1.7,0.3-2.3,0.9c-0.6,0.6-0.9,1.4-0.9,2.4v5.5c0,0.2-0.1,0.4-0.2,0.6c-0.2,0.2-0.3,0.2-0.6,0.2c-0.2,0-0.4-0.1-0.6-0.2
				C103.5,42.3,103.4,42.1,103.4,41.9z"/>
			<path class="st1" d="M122.8,41.7V28.8c0-0.2,0.1-0.4,0.2-0.6c0.2-0.2,0.4-0.3,0.6-0.3h5.4c1.7,0,2.9,0.4,3.8,1.3
				c0.6,0.7,0.9,1.4,0.9,2.3v0c0,1.6-0.8,2.7-2.3,3.4c2.1,0.6,3.1,1.8,3.1,3.5v0c0,1.2-0.5,2.2-1.4,2.9c-1,0.7-2.2,1.1-3.9,1.1h-5.7
				c-0.2,0-0.4-0.1-0.6-0.3C122.9,42.2,122.8,42,122.8,41.7z M124.4,34.5h4.3c1,0,1.8-0.2,2.4-0.7c0.6-0.5,0.9-1.1,0.9-1.9v0
				c0-0.7-0.3-1.3-0.8-1.7s-1.4-0.6-2.4-0.6h-4.4V34.5z M124.4,41.1h4.9c1.1,0,2-0.2,2.6-0.7s1-1.1,1-1.9v0c0-0.8-0.3-1.4-1-1.9
				c-0.7-0.4-1.6-0.6-2.9-0.6h-4.6V41.1z"/>
			<path class="st1" d="M137.6,41.9v-9.4c0-0.2,0.1-0.4,0.2-0.6c0.2-0.2,0.3-0.2,0.6-0.2c0.2,0,0.4,0.1,0.6,0.2s0.2,0.3,0.2,0.6v2
				c0.4-0.9,0.9-1.6,1.6-2.1c0.7-0.5,1.4-0.8,2.1-0.8c0.2,0,0.4,0.1,0.6,0.2c0.1,0.2,0.2,0.3,0.2,0.6c0,0.2-0.1,0.4-0.2,0.6
				c-0.1,0.1-0.3,0.2-0.5,0.3c-1.1,0.1-2,0.6-2.7,1.5c-0.7,0.8-1.1,2-1.1,3.5v3.7c0,0.2-0.1,0.4-0.2,0.6c-0.2,0.2-0.3,0.2-0.6,0.2
				c-0.2,0-0.4-0.1-0.6-0.2C137.7,42.3,137.6,42.1,137.6,41.9z"/>
			<path class="st1" d="M154.6,41.2c-1.1,1.1-2.4,1.7-4,1.7c-1.6,0-2.9-0.5-4-1.6c-1.1-1.1-1.6-2.4-1.6-4v0c0-1.5,0.5-2.9,1.6-4
				c1.1-1.1,2.4-1.7,4-1.7c1.6,0,2.9,0.5,4,1.6c1.1,1.1,1.6,2.4,1.6,4v0C156.2,38.7,155.6,40.1,154.6,41.2z M150.6,41.4
				c1.2,0,2.1-0.4,2.8-1.2c0.7-0.8,1.1-1.8,1.1-2.9v0c0-1.2-0.4-2.2-1.2-3c-0.8-0.8-1.7-1.2-2.8-1.2c-1.1,0-2.1,0.4-2.8,1.2
				c-0.7,0.8-1.1,1.8-1.1,3v0c0,1.2,0.4,2.2,1.1,3C148.5,41,149.4,41.4,150.6,41.4z"/>
			<path class="st1" d="M162.2,42.7c-0.4,0-0.7-0.2-0.9-0.7l-3.3-9.1c-0.1-0.2-0.1-0.4-0.1-0.4c0-0.2,0.1-0.4,0.2-0.5
				c0.2-0.2,0.3-0.2,0.6-0.2c0.4,0,0.7,0.2,0.8,0.7l2.7,8.1l2.7-8.1c0.1-0.4,0.4-0.6,0.8-0.6h0.1c0.4,0,0.7,0.2,0.8,0.6l2.7,8.1
				l2.8-8.1c0.1-0.4,0.4-0.6,0.8-0.6c0.2,0,0.4,0.1,0.6,0.2c0.2,0.1,0.2,0.3,0.2,0.5c0,0.1,0,0.2-0.1,0.4l-3.3,9.1
				c-0.2,0.5-0.5,0.7-0.9,0.7h-0.1c-0.4,0-0.7-0.2-0.9-0.7l-2.7-7.9l-2.7,7.9C162.9,42.5,162.6,42.7,162.2,42.7L162.2,42.7z"/>
			<path class="st1" d="M179.9,42.8c-1.5,0-2.9-0.5-4.2-1.4c-0.2-0.1-0.3-0.3-0.3-0.6c0-0.2,0.1-0.4,0.2-0.5
				c0.1-0.1,0.3-0.2,0.5-0.2c0.2,0,0.3,0,0.4,0.1c1.1,0.8,2.3,1.1,3.4,1.1c0.7,0,1.2-0.2,1.6-0.5c0.4-0.3,0.6-0.7,0.6-1.2v0
				c0-0.5-0.2-0.9-0.7-1.1c-0.5-0.3-1.1-0.5-2-0.8c-0.5-0.2-1-0.3-1.3-0.4c-0.3-0.1-0.7-0.3-1.1-0.5c-0.4-0.2-0.7-0.5-0.9-0.9
				c-0.2-0.3-0.3-0.8-0.3-1.2v0c0-0.9,0.3-1.7,1-2.2c0.7-0.6,1.6-0.9,2.6-0.9c1.2,0,2.3,0.3,3.4,0.9c0.3,0.2,0.4,0.4,0.4,0.7
				c0,0.2-0.1,0.4-0.2,0.5c-0.1,0.1-0.3,0.2-0.5,0.2c-0.1,0-0.2,0-0.4-0.1c-1-0.6-1.9-0.8-2.8-0.8c-0.6,0-1.1,0.1-1.5,0.4
				c-0.4,0.3-0.6,0.7-0.6,1.1v0c0,0.2,0.1,0.4,0.2,0.5c0.1,0.2,0.2,0.3,0.4,0.4c0.1,0.1,0.4,0.2,0.7,0.4c0.3,0.1,0.5,0.2,0.7,0.3
				c0.2,0.1,0.5,0.1,0.9,0.3c0.4,0.1,0.7,0.2,1,0.3c0.3,0.1,0.6,0.2,0.9,0.4c0.3,0.2,0.6,0.4,0.8,0.6c0.2,0.2,0.4,0.5,0.5,0.8
				c0.1,0.3,0.2,0.6,0.2,1v0c0,1-0.4,1.8-1.1,2.4C181.9,42.5,181,42.8,179.9,42.8z"/>
			<path class="st1" d="M195.5,41.2c-1.1,1.1-2.5,1.6-4.1,1.6c-1.5,0-2.8-0.5-3.8-1.6s-1.6-2.4-1.6-4v0c0-1.6,0.5-2.9,1.5-4
				c1-1.1,2.2-1.6,3.7-1.6c1.5,0,2.7,0.5,3.7,1.6c0.9,1.1,1.4,2.4,1.4,3.9c0,0.2-0.1,0.4-0.2,0.5c-0.1,0.1-0.3,0.2-0.5,0.2h-7.8
				c0.1,1.1,0.5,2,1.2,2.7s1.6,1,2.6,1c1.2,0,2.2-0.4,3.1-1.3c0.2-0.1,0.3-0.2,0.5-0.2c0.2,0,0.4,0.1,0.5,0.2
				c0.1,0.1,0.2,0.3,0.2,0.5C195.7,40.9,195.6,41.1,195.5,41.2z M187.6,36.6h7c-0.1-1.1-0.4-1.9-1-2.6c-0.6-0.7-1.4-1-2.4-1
				c-0.9,0-1.7,0.3-2.4,1C188.1,34.7,187.7,35.5,187.6,36.6z"/>
			<path class="st1" d="M199,41.9v-9.4c0-0.2,0.1-0.4,0.2-0.6c0.2-0.2,0.3-0.2,0.6-0.2c0.2,0,0.4,0.1,0.6,0.2s0.2,0.3,0.2,0.6v2
				c0.4-0.9,0.9-1.6,1.6-2.1c0.7-0.5,1.4-0.8,2.1-0.8c0.2,0,0.4,0.1,0.6,0.2c0.1,0.2,0.2,0.3,0.2,0.6c0,0.2-0.1,0.4-0.2,0.6
				c-0.1,0.1-0.3,0.2-0.5,0.3c-1.1,0.1-2,0.6-2.7,1.5c-0.7,0.8-1.1,2-1.1,3.5v3.7c0,0.2-0.1,0.4-0.2,0.6c-0.2,0.2-0.3,0.2-0.6,0.2
				c-0.2,0-0.4-0.1-0.6-0.2C199.1,42.3,199,42.1,199,41.9z"/>
		</g>
	</g>
</g>
</svg>
